<svg width="200" viewBox="0 0 304.151 72.022" xmlns="http://www.w3.org/2000/svg"><g id="svgGroup" stroke-linecap="round" fill-rule="evenodd" font-size="32pt" stroke="#15ff00" stroke-width="0.5mm" fill="#ffffff" style="stroke:#15ff00;stroke-width:0.5mm;fill:#ffffff"><path d="M 258.154 72.021 L 244.629 72.021 L 219.824 49.805 L 219.824 72.021 L 210.254 72.021 L 210.254 0 L 219.824 0 L 219.824 40.527 L 242.627 20.02 L 256.152 20.02 L 228.223 45.117 L 258.154 72.021 Z M 134.229 29.639 L 134.229 72.021 L 124.609 72.021 L 124.609 29.639 L 97.803 29.639 L 97.803 72.021 L 88.232 72.021 L 88.232 20.02 L 97.803 20.02 L 97.803 29.199 A 9.62 9.62 0 0 1 98.682 25.61 Q 99.463 23.926 100.757 22.681 A 9.568 9.568 0 0 1 103.76 20.728 Q 105.469 20.02 107.422 20.02 L 124.609 20.02 Q 126.611 20.02 128.369 20.776 A 9.681 9.681 0 0 1 131.421 22.827 A 9.681 9.681 0 0 1 133.472 25.879 Q 134.229 27.637 134.229 29.639 Z M 184.619 29.639 L 159.814 29.639 L 159.814 62.402 L 184.619 62.402 L 184.619 53.613 L 194.238 53.613 L 194.238 62.402 Q 194.238 64.404 193.481 66.162 A 9.681 9.681 0 0 1 191.431 69.214 A 9.681 9.681 0 0 1 188.379 71.265 Q 186.621 72.021 184.619 72.021 L 159.814 72.021 A 9.285 9.285 0 0 1 156.104 71.265 A 9.681 9.681 0 0 1 153.052 69.214 A 9.681 9.681 0 0 1 151.001 66.162 Q 150.244 64.404 150.244 62.402 L 150.244 29.639 Q 150.244 27.637 151.001 25.879 A 9.681 9.681 0 0 1 153.052 22.827 A 9.681 9.681 0 0 1 156.104 20.776 A 9.285 9.285 0 0 1 159.814 20.02 L 184.619 20.02 Q 186.621 20.02 188.379 20.776 A 9.681 9.681 0 0 1 191.431 22.827 A 9.681 9.681 0 0 1 193.481 25.879 Q 194.238 27.637 194.238 29.639 L 194.238 38.428 L 184.619 38.428 L 184.619 29.639 Z M 30.811 72.021 L 20.801 72.021 L 0 20.02 L 10.01 20.02 L 25.781 60.498 L 41.602 20.02 L 51.611 20.02 L 30.811 72.021 Z M 294.531 29.639 L 274.707 29.639 L 274.707 72.021 L 265.137 72.021 L 265.137 20.02 L 274.707 20.02 L 274.707 29.199 A 9.62 9.62 0 0 1 275.586 25.61 Q 276.367 23.926 277.661 22.681 A 9.568 9.568 0 0 1 280.664 20.728 Q 282.373 20.02 284.326 20.02 L 294.531 20.02 A 9.319 9.319 0 0 1 297.829 20.599 A 8.893 8.893 0 0 1 298.267 20.776 A 10.064 10.064 0 0 1 301.318 22.827 A 9.48 9.48 0 0 1 303.394 25.879 Q 304.15 27.637 304.15 29.639 L 304.15 38.428 L 294.531 38.428 L 294.531 29.639 Z M 62.109 20.02 L 71.729 20.02 L 71.729 72.021 L 62.109 72.021 L 62.109 20.02 Z M 61.621 10.01 L 61.621 0 L 72.217 0 L 72.217 10.01 L 61.621 10.01 Z" vector-effect="non-scaling-stroke"/></g></svg>