<svg width="400" height="95" viewBox="0 0 400 95" fill="none" xmlns="http://www.w3.org/2000/svg">
<g clip-path="url(#clip0_638_38)">
<rect width="400" height="94.7187" fill="#5AFF75"/>
<path fill-rule="evenodd" clip-rule="evenodd" d="M339.508 94.7174H321.72L289.099 65.5004V94.7174H276.513V0H289.099V53.2985L319.088 26.329H336.875L300.144 59.335L339.508 94.7174ZM176.529 38.9793V94.7174H163.878V38.9793H128.624V94.7174H116.037V26.329H128.624V38.4007C128.701 36.7674 129.094 35.1645 129.78 33.6806C130.465 32.2042 131.375 30.9202 132.509 29.8286C133.652 28.7315 134.992 27.86 136.459 27.2601C137.957 26.6394 139.562 26.329 141.275 26.329H163.878C165.633 26.329 167.281 26.6604 168.823 27.3233C170.321 27.9577 171.683 28.8733 172.837 30.0206C173.984 31.1739 174.899 32.5364 175.534 34.0344C176.198 35.5757 176.529 37.2241 176.529 38.9793ZM242.799 38.9793H210.177V82.0671H242.799V70.5084H255.449V82.0671C255.449 83.8224 255.118 85.4707 254.454 87.012C253.82 88.5099 252.905 89.8724 251.758 91.0258C250.605 92.1731 249.242 93.0887 247.744 93.7232C246.203 94.386 244.554 94.7174 242.799 94.7174H210.177C208.5 94.7247 206.839 94.3862 205.298 93.7232C203.8 93.0887 202.438 92.1731 201.284 91.0258C200.137 89.8725 199.221 88.51 198.587 87.012C197.923 85.4707 197.591 83.8224 197.591 82.0671V38.9793C197.591 37.2241 197.923 35.5757 198.587 34.0344C199.221 32.5364 200.137 31.1739 201.284 30.0206C202.438 28.8733 203.8 27.9577 205.298 27.3233C206.839 26.6602 208.5 26.3218 210.177 26.329H242.799C244.554 26.329 246.203 26.6604 247.744 27.3233C249.242 27.9577 250.605 28.8733 251.758 30.0206C252.905 31.174 253.82 32.5365 254.454 34.0344C255.118 35.5757 255.449 37.2241 255.449 38.9793V50.5381H242.799V38.9793ZM40.5207 94.7174H27.3562L0 26.329H13.1645L33.9055 79.5631L54.7123 26.329H67.8755L40.5207 94.7174ZM387.348 38.9793H361.277V94.7174H348.691V26.329H361.277V38.4007C361.354 36.7674 361.746 35.1645 362.433 33.6806C363.118 32.2042 364.028 30.9202 365.162 29.8286C366.305 28.7315 367.645 27.86 369.111 27.2601C370.61 26.6394 372.215 26.329 373.927 26.329H387.348C388.828 26.3189 390.298 26.5769 391.686 27.0905C391.88 27.163 392.072 27.2406 392.262 27.3233C393.754 27.9684 395.114 28.8828 396.274 30.0206C397.439 31.1667 398.366 32.5305 399.004 34.0344C399.667 35.5757 399.999 37.2241 399.999 38.9793V50.5381H387.348V38.9793ZM81.6818 26.329H94.3334V94.7174H81.6818V26.329ZM81.04 13.1645V0H94.9752V13.1645H81.04Z" fill="#321F1F" stroke="black" stroke-width="1.88976" stroke-linecap="round"/>
</g>
<defs>
<clipPath id="clip0_638_38">
<rect width="400" height="94.7187" fill="white"/>
</clipPath>
</defs>
</svg>
